HIERARCHY
ROOT hip
{
	OFFSET 0.000000 0.000000 0.000000 
	CHANNELS 6 Xposition Yposition Zposition Xrotation Zrotation Yrotation
	JOINT abdomen
	{
		OFFSET 0.000000 3.402643 0.000000 
		CHANNELS 3 Xrotation Zrotation Yrotation
		JOINT chest
		{
			OFFSET 0.000000 8.438565 -0.680529 
			CHANNELS 3 Xrotation Zrotation Yrotation
			JOINT neck
			{
				OFFSET 0.000000 10.207942 -0.272212 
				CHANNELS 3 Xrotation Zrotation Yrotation
				JOINT head
				{
					OFFSET 0.000000 3.130431 0.000000 
					CHANNELS 3 Xrotation Zrotation Yrotation
					End Site
					{
						OFFSET 0.000000 3.130435 0.000000 
					}
				}
			}
			JOINT lCollar
			{
				OFFSET 3.470700 6.669187 -0.816635 
				CHANNELS 3 Yrotation Zrotation Xrotation
				JOINT lShldr
				{
					OFFSET 3.198488 0.000000 0.000000 
					CHANNELS 3 Zrotation Yrotation Xrotation
					JOINT lForeArm
					{
						OFFSET 10.139888 0.000000 0.000000 
						CHANNELS 3 Yrotation Zrotation Xrotation
						JOINT lHand
						{
							OFFSET 8.370511 0.000000 0.000000 
							CHANNELS 3 Zrotation Yrotation Xrotation
							End Site
							{
								OFFSET 4.083176 0.000000 0.000000 
							}
						}
					}
				}
			}
			JOINT rCollar
			{
				OFFSET -3.470700 6.669187 -0.816635 
				CHANNELS 3 Yrotation Zrotation Xrotation
				JOINT rShldr
				{
					OFFSET -3.198488 0.000000 0.000000 
					CHANNELS 3 Zrotation Yrotation Xrotation
					JOINT rForeArm
					{
						OFFSET -10.139888 0.000000 0.000000 
						CHANNELS 3 Yrotation Zrotation Xrotation
						JOINT rHand
						{
							OFFSET -8.370511 0.000000 0.000000 
							CHANNELS 3 Zrotation Yrotation Xrotation
							End Site
							{
								OFFSET -4.083176 0.000000 0.000000 
							}
						}
					}
				}
			}
		}
	}
	JOINT lThigh
	{
		OFFSET 5.308129 -1.633274 1.361059 
		CHANNELS 3 Xrotation Zrotation Yrotation
		JOINT lShin
		{
			OFFSET -2.041588 -20.007561 0.000000 
			CHANNELS 3 Xrotation Zrotation Yrotation
			JOINT lFoot
			{
				OFFSET 0.000000 -19.190928 -1.224953 
				CHANNELS 3 Xrotation Yrotation Zrotation
				End Site
				{
					OFFSET 0.000000 -2.449906 4.627600 
				}
			}
		}
	}
	JOINT rThigh
	{
		OFFSET -5.308129 -1.633274 1.361059 
		CHANNELS 3 Xrotation Zrotation Yrotation
		JOINT rShin
		{
			OFFSET 2.041588 -20.007561 0.000000 
			CHANNELS 3 Xrotation Zrotation Yrotation
			JOINT rFoot
			{
				OFFSET 0.000000 -19.190928 -1.224953 
				CHANNELS 3 Xrotation Yrotation Zrotation
				End Site
				{
					OFFSET 0.000000 -2.449906 4.627600 
				}
			}
		}
	}
}
MOTION
Frames: 10
Frame Time: 0.033333
-33.300507 49.198994 -2.792830 -0.082620 0.018807 15.654299 0.000000 0.000000 0.000000 4.972545 0.845838 5.401098 9.386830 2.091853 23.747545 18.176365 -12.458511 19.027575 2.170355 3.749148 5.025079 -71.842911 -3.188648 18.785522 -43.788555 -7.876798 8.816769 15.550236 10.978120 -2.560540 10.980976 5.523120 4.587148 59.782440 -19.721956 12.948182 36.755428 8.941267 -9.711826 -15.788213 -19.710789 -1.451626 -7.351729 11.939724 5.212868 1.728203 -0.009369 3.031863 7.573446 -0.460152 -6.935091 -4.624353 -5.578832 -6.904982 17.362680 4.140469 -12.426474 -11.505222 -0.366565 3.389699 
-33.408810 49.244232 -2.867343 -0.248569 0.356515 16.113630 0.000000 0.000000 0.000000 5.015890 0.904287 5.322989 9.582557 1.908314 24.067167 18.373795 -12.269466 19.204159 2.306380 3.742824 5.053790 -71.959419 -3.245795 18.915335 -43.413029 -8.032948 8.534315 15.384738 11.359809 -2.529838 10.931583 5.109428 4.642985 59.785957 -20.626585 13.804124 37.214645 8.854608 -8.478660 -15.034479 -19.611797 -1.574064 -6.348062 11.035375 4.844768 2.595502 -0.097233 1.503027 5.365750 -0.341930 -7.714247 -4.284367 -5.756730 -7.070729 17.037266 4.158265 -12.497536 -11.313981 -0.332604 3.242218 
-33.461292 49.274403 -2.854329 -0.392140 0.355661 16.582367 0.000000 0.000000 0.000000 4.760233 1.215574 5.255207 9.444953 1.887302 24.281868 19.322788 -12.003415 19.164602 2.381992 3.737057 4.790044 -72.133682 -2.731940 18.896826 -42.786663 -8.166742 8.168495 14.978589 11.838994 -2.500450 10.677858 4.697300 4.394968 59.972893 -21.361427 14.557364 37.656036 8.826551 -7.393080 -14.539526 -19.327820 -1.683384 -6.942244 10.486328 4.542173 5.791601 -0.224340 0.533791 2.581824 -0.156705 -7.375785 -3.814929 -5.715719 -7.247587 16.545557 4.312630 -12.631787 -11.173386 -0.320940 3.084161 
-33.495438 49.238598 -2.797944 -0.152418 -0.411671 16.650791 0.000000 0.000000 0.000000 3.866724 1.847171 5.422763 9.135242 2.194951 24.511560 19.632504 -11.759847 19.066246 2.458077 4.269584 3.922208 -72.711243 -1.512756 18.800182 -42.027370 -8.341452 7.228216 15.189274 11.775384 -2.487078 10.763012 4.826941 3.471743 59.756306 -22.256775 15.220050 38.108921 8.774636 -6.316958 -13.614110 -18.987358 -1.840013 -8.379321 10.801165 4.368048 8.398945 0.048534 2.396496 1.227293 -0.062309 -7.552710 -4.058360 -5.051961 -6.956235 16.317816 4.492186 -12.520003 -11.187896 -0.299517 2.943028 
-33.515026 49.245094 -2.681053 -0.067446 -1.161974 16.350933 0.000000 0.000000 0.000000 3.050519 2.449407 5.552225 8.735343 2.424839 24.574448 20.105726 -11.681092 18.861591 2.660050 4.477787 3.130092 -73.174805 -0.036690 18.380650 -40.862446 -8.463880 6.548316 15.314710 10.834899 -2.603236 10.789516 4.959086 2.636279 59.633205 -22.330275 15.432049 38.145847 8.781541 -5.753182 -12.972078 -18.830404 -1.950123 -7.409292 11.664362 5.170985 6.188021 -0.098680 3.891427 2.555798 -0.186487 -8.546184 -3.777429 -4.372134 -6.711033 15.378900 4.715606 -12.012403 -10.903333 -0.275100 2.682012 
-33.503323 49.210651 -2.537518 0.035452 -0.966956 15.988605 0.000000 0.000000 0.000000 2.461960 2.245513 5.492854 8.372743 2.261513 24.268408 20.260662 -11.434123 18.664347 2.666199 3.933427 2.599933 -72.921539 1.890740 17.714676 -40.176033 -8.496848 7.207823 15.908014 11.566026 -2.463036 10.704914 4.833470 2.155166 59.630981 -21.728262 14.902648 38.057404 8.759722 -5.415394 -12.611516 -18.440620 -2.045308 -5.925617 11.762450 5.792994 3.863219 -0.351199 4.223313 3.537127 -0.282795 -9.488889 -3.914466 -4.636271 -6.753142 16.050247 4.675261 -10.939076 -11.481819 -0.283060 2.660303 
-33.454113 49.184494 -2.407718 -0.084752 -0.517628 15.479102 0.000000 0.000000 0.000000 2.161331 1.905686 5.364524 8.296753 2.005008 23.579903 19.449261 -11.390584 18.331753 2.547209 3.643253 2.365345 -73.024742 3.624140 16.823891 -39.139366 -8.507948 6.726180 14.725878 13.145553 -2.364842 10.459280 4.410730 1.982488 60.079613 -20.596899 14.192239 38.380783 8.567083 -5.133331 -12.989374 -18.724512 -1.961359 -5.339914 11.625752 6.046924 4.074585 -0.613929 4.287592 3.073840 -0.245180 -9.667004 -3.787120 -5.152560 -6.865066 16.763954 4.610945 -9.564483 -12.090309 -0.292756 2.615908 
-33.285069 49.165081 -2.353304 -0.357313 -0.293523 14.170081 0.000000 0.000000 0.000000 2.094770 1.953631 5.569819 8.292363 1.815022 23.069151 18.325151 -11.157884 17.727764 2.559192 3.952807 2.287404 -73.593704 5.150541 16.284279 -38.454033 -8.602926 5.417873 15.735040 12.558145 -2.359754 10.644050 4.349966 1.885662 60.371128 -19.556814 12.972228 39.879250 8.086624 -5.842656 -13.186563 -19.054468 -1.901320 -5.407630 11.516392 6.268756 5.993303 -0.665041 5.314361 1.808669 -0.152423 -9.603895 -3.599543 -5.665663 -7.104468 17.159567 4.625074 -7.698683 -12.286486 -0.272886 2.572817 
-33.099857 49.134384 -2.198568 -1.128401 -0.238053 12.822354 0.000000 0.000000 0.000000 2.239237 2.011746 5.628721 8.692229 1.882741 22.053839 16.302921 -10.703854 16.843513 2.416814 4.343816 2.416192 -74.078232 6.804816 15.556688 -37.732353 -8.555641 4.903365 16.421638 12.669315 -2.284981 10.530182 4.600647 1.992297 60.085545 -17.991947 12.683660 41.279758 7.857614 -6.970486 -13.357494 -19.234554 -1.858850 -4.948662 11.515298 6.608626 7.917696 -0.499547 6.125442 0.225340 -0.011941 -9.728605 -2.841462 -5.848591 -7.157677 17.387638 4.529200 -6.018574 -12.511233 -0.294813 2.606678 
-32.918564 49.078442 -1.996439 -1.966111 -0.152829 12.011753 0.000000 0.000000 0.000000 2.492861 2.062614 4.944875 9.282477 1.327468 19.273062 12.178280 -9.650291 14.921460 2.486067 4.133745 2.669757 -73.756615 8.286862 15.178100 -37.413471 -8.576877 4.483368 16.326603 12.641266 -2.293875 9.807024 4.565969 2.276431 59.830170 -15.736322 12.819647 42.578194 7.542819 -6.598624 -13.213473 -18.967861 -1.904851 -7.879087 11.929950 5.990199 16.052763 -0.013001 4.435827 -1.706242 0.172406 -10.526489 -2.088574 -6.009854 -7.290485 17.943716 4.431774 -5.033522 -12.938781 -0.337220 2.740392 
